<?xml version="1.0" encoding="UTF-8"?>
<svg version="1.1" xmlns="http://www.w3.org/2000/svg" width="500" height="500">
<path d="M0 0 C1.01578125 0.54398438 2.0315625 1.08796875 3.078125 1.6484375 C17.1842941 9.54943385 31.69336039 19.40344655 43 31 C44.32727344 32.15284736 45.66115556 33.29811097 47 34.4375 C49.47969374 36.57693501 51.69793016 38.6975798 53.75 41.25 C55.71947637 43.65713779 57.53487186 45.17397916 60 47 C60 47.66 60 48.32 60 49 C60.66 49 61.32 49 62 49 C63.85736047 50.843325 65.48970771 52.83527162 67.17578125 54.8359375 C68.29004443 56.1577829 69.42820493 57.46050263 70.60546875 58.7265625 C72 60.25 72 60.25 74 63 C73.81247282 67.09150215 71.2167924 69.05416068 68.375 71.75 C64.48997299 75.50163552 60.89321716 79.32695596 57.47265625 83.50390625 C56 85 56 85 53 86 C52.29605388 87.31403276 51.63654342 88.6520257 51 90 C48.36099813 93.64000258 45.52553759 96.23674081 42 99 C41.67 99.66 41.34 100.32 41 101 C40.34 101 39.68 101 39 101 C38.79632813 101.53109375 38.59265625 102.0621875 38.3828125 102.609375 C36.40494391 106.02874104 33.69673101 108.51337921 30.875 111.25 C30.31167969 111.80429688 29.74835938 112.35859375 29.16796875 112.9296875 C27.78313972 114.29104485 26.39216796 115.64614859 25 117 C24.01 116.67 23.02 116.34 22 116 C22 115.34 22 114.68 22 114 C21.34 114 20.68 114 20 114 C20 113.34 20 112.68 20 112 C19.34 112 18.68 112 18 112 C16.66796875 110.42578125 16.66796875 110.42578125 15.1875 108.3125 C12.74618092 104.83705649 10.03878372 101.9682169 7 99 C5.99256189 97.97353788 4.98745653 96.94478238 3.984375 95.9140625 C-1.56352263 90.25890154 -7.00093441 84.87007345 -13.48828125 80.26953125 C-14.23658203 79.64111328 -14.23658203 79.64111328 -15 79 C-15 78.34 -15 77.68 -15 77 C-15.70125 76.7525 -16.4025 76.505 -17.125 76.25 C-20.39514548 74.82819762 -23.141122 73.12753712 -26 71 C-26 70.34 -26 69.68 -26 69 C-26.84949219 68.74089844 -27.69898438 68.48179688 -28.57421875 68.21484375 C-33.3816769 66.51003248 -37.75655224 64.11493369 -42.26953125 61.75390625 C-49.71911915 58.11501112 -56.51270052 56.43804919 -64.8125 56.5 C-66.12299316 56.50640503 -66.12299316 56.50640503 -67.45996094 56.51293945 C-74.7989213 56.7051762 -80.60130868 58.32049978 -87 62 C-87.74378906 62.40734375 -88.48757812 62.8146875 -89.25390625 63.234375 C-93.42665127 65.67309505 -97.00820025 68.58896627 -100.5546875 71.86328125 C-102 73 -102 73 -104 73 C-104 73.66 -104 74.32 -104 75 C-104.66 75 -105.32 75 -106 75 C-106 75.66 -106 76.32 -106 77 C-106.66 77 -107.32 77 -108 77 C-108.26941406 77.57492188 -108.53882813 78.14984375 -108.81640625 78.7421875 C-110.02234064 81.04261681 -111.41401628 83.0239105 -112.9375 85.125 C-119.10326039 94.36610297 -120.31865208 104.12897596 -118.49609375 115.0078125 C-115.91839842 126.2907532 -110.9896455 136.36382869 -105.35546875 146.3828125 C-104 149 -104 149 -104 151 C-103.34 151 -102.68 151 -102 151 C-100.19333451 153.4688099 -98.49023283 155.94570522 -96.8125 158.5 C-92.87162593 164.36894991 -88.84729234 169.83960505 -84 175 C-82.70157389 176.43139745 -81.40989493 177.86894396 -80.125 179.3125 C-79.55007812 179.94800781 -78.97515625 180.58351562 -78.3828125 181.23828125 C-77 183 -77 183 -76 186 C-75.34 186 -74.68 186 -74 186 C-72.44921875 187.57421875 -72.44921875 187.57421875 -70.6875 189.6875 C-68.56355316 192.19802294 -66.44498656 194.60823421 -64.0625 196.875 C-62 199 -62 199 -62 201 C-61.34 201 -60.68 201 -60 201 C-58.875 204.75 -58.875 204.75 -60 207 C-60.66 207 -61.32 207 -62 207 C-62.24105469 207.56976563 -62.48210937 208.13953125 -62.73046875 208.7265625 C-64.24728666 211.44283334 -66.06762907 213.22445137 -68.3125 215.375 C-71.01784279 218.00640255 -73.59158999 220.6055296 -75.9375 223.5625 C-76.618125 224.366875 -77.29875 225.17125 -78 226 C-78.66 226 -79.32 226 -80 226 C-80 226.66 -80 227.32 -80 228 C-81.62468992 229.72950862 -83.28580526 231.36137301 -85 233 C-89.36839922 237.27858166 -93.68808374 241.55846388 -97.6875 246.1875 C-98.52474609 247.15042969 -98.52474609 247.15042969 -99.37890625 248.1328125 C-100.45517068 249.37246165 -101.52555751 250.61723953 -102.58984375 251.8671875 C-104.125 253.5625 -104.125 253.5625 -107 256 C-110.02129218 255.85156885 -111.53328982 255.41328548 -113.80859375 253.3984375 C-114.61490234 252.39683594 -114.61490234 252.39683594 -115.4375 251.375 C-116.03175781 250.65441406 -116.62601562 249.93382812 -117.23828125 249.19140625 C-117.81964844 248.46824219 -118.40101563 247.74507813 -119 247 C-120.03665692 245.76660527 -121.0780065 244.5371325 -122.125 243.3125 C-122.61484375 242.73886719 -123.1046875 242.16523438 -123.609375 241.57421875 C-124.81359539 240.21101421 -126.08882867 238.91117133 -127.375 237.625 C-129.75915506 235.24084494 -132.04700917 232.8089196 -134.3125 230.3125 C-135.00988281 229.54550781 -135.70726562 228.77851563 -136.42578125 227.98828125 C-138 226 -138 226 -138 224 C-138.66 224 -139.32 224 -140 224 C-141.29345703 222.61401367 -141.29345703 222.61401367 -142.7578125 220.66796875 C-143.29688232 219.95753418 -143.83595215 219.24709961 -144.39135742 218.51513672 C-145.2495105 217.36295654 -145.2495105 217.36295654 -146.125 216.1875 C-146.71321533 215.40648926 -147.30143066 214.62547852 -147.9074707 213.82080078 C-149.61198268 211.55233549 -151.30716455 209.2771857 -153 207 C-153.75410156 205.99324219 -154.50820312 204.98648438 -155.28515625 203.94921875 C-166.36115801 188.96136422 -176.53894021 173.6212777 -182.89453125 156 C-183.69027912 153.8405146 -184.57266266 151.7122508 -185.5078125 149.609375 C-187.04995511 145.87916617 -188.12651649 142.16341253 -189.0625 138.25 C-189.22298828 137.610625 -189.38347656 136.97125 -189.54882812 136.3125 C-190.06311351 134.21405038 -190.53932846 132.11087593 -191 130 C-191.18240234 129.16525146 -191.36480469 128.33050293 -191.55273438 127.47045898 C-196.59667182 102.39766064 -192.5897924 77.525686 -181 55 C-180.443125 53.91203125 -179.88625 52.8240625 -179.3125 51.703125 C-175.07910618 44.00974585 -169.75604969 37.23994091 -164.20263672 30.47265625 C-163.23427886 29.28687983 -162.28740976 28.08357189 -161.34765625 26.875 C-156.98485947 21.41201969 -151.47181746 17.29727567 -146 13 C-144.99710938 12.18144531 -143.99421875 11.36289063 -142.9609375 10.51953125 C-101.34289225 -23.07622977 -46.4011233 -25.04069194 0 0 Z " fill="#f2f2f2" transform="translate(291,56)"/>
<path d="M0 0 C4.13639336 1.59092052 7.23213248 4.60474918 10 8 C10 8.66 10 9.32 10 10 C10.99 10.33 11.98 10.66 13 11 C14.82421875 12.77734375 14.82421875 12.77734375 16.6875 14.9375 C17.62142578 16.00291016 17.62142578 16.00291016 18.57421875 17.08984375 C20 19 20 19 20 21 C20.66 21 21.32 21 22 21 C23.91015625 23.08203125 23.91015625 23.08203125 26.0625 25.8125 C26.77535156 26.70582031 27.48820313 27.59914062 28.22265625 28.51953125 C30 31 30 31 31 34 C31.66 34 32.32 34 33 34 C34.63429751 36.0944968 36.14167234 38.17782091 37.625 40.375 C38.25535156 41.27992188 38.25535156 41.27992188 38.8984375 42.203125 C42 46.73462865 42 46.73462865 42 49 C42.66 49 43.32 49 44 49 C45.53311663 51.11744791 46.93622769 53.22090894 48.3125 55.4375 C48.71911865 56.08348145 49.1257373 56.72946289 49.54467773 57.39501953 C52.53556288 62.17828276 55.39252851 66.99584065 58 72 C58.61617187 73.14597656 59.23234375 74.29195313 59.8671875 75.47265625 C65.06031368 85.32459555 68.79005897 95.34883203 72 106 C72.51433594 107.62228516 72.51433594 107.62228516 73.0390625 109.27734375 C75.55630208 119.02908895 76.31859706 128.45053139 76.25 138.5 C76.25773437 139.63308594 76.26546875 140.76617187 76.2734375 141.93359375 C76.24693251 153.50302098 74.47023665 163.9125135 70.4375 174.75 C70.09396484 175.6879541 69.75042969 176.6259082 69.39648438 177.59228516 C66.11473412 186.24591295 61.8617706 194.14463917 57 202 C56.34 202 55.68 202 55 202 C54.731875 202.7425 54.46375 203.485 54.1875 204.25 C53.04723249 206.89061949 51.90619694 208.85552844 50 211 C49.34 211 48.68 211 48 211 C47.7525 211.556875 47.505 212.11375 47.25 212.6875 C36.56333068 232.45783823 8.61372144 247.07556331 -12.08666992 253.38012695 C-41.54315366 261.58348466 -71.25149974 258.41772026 -100 249 C-101.16660156 248.62101563 -102.33320313 248.24203125 -103.53515625 247.8515625 C-121.66076594 241.38958787 -140.77079823 230.7459269 -156 219 C-156 218.34 -156 217.68 -156 217 C-156.88993652 216.82102173 -156.88993652 216.82102173 -157.79785156 216.63842773 C-161.3051281 215.62162861 -163.91681066 213.28235055 -166.75 211.0625 C-167.65298828 210.37897461 -167.65298828 210.37897461 -168.57421875 209.68164062 C-170.09145961 208.50672508 -171.55116855 207.25830593 -173 206 C-173 205.34 -173 204.68 -173 204 C-173.58265625 203.73445312 -174.1653125 203.46890625 -174.765625 203.1953125 C-177.06174228 201.96697004 -178.80356018 200.59685061 -180.75 198.875 C-181.36359375 198.33617187 -181.9771875 197.79734375 -182.609375 197.2421875 C-183.06828125 196.83226562 -183.5271875 196.42234375 -184 196 C-183.46133395 192.0318268 -181.60656261 190.32076273 -178.75 187.625 C-176.01593947 184.99525974 -173.4164066 182.41345999 -171.0625 179.4375 C-170.0415625 178.2309375 -170.0415625 178.2309375 -169 177 C-168.34 177 -167.68 177 -167 177 C-166.68095703 176.18789063 -166.68095703 176.18789063 -166.35546875 175.359375 C-164.50980567 172.14675109 -161.96035389 169.79450725 -159.3125 167.25 C-155.89660896 163.90688427 -152.53346747 160.5847007 -149.4375 156.9375 C-144.94636257 151.65315173 -139.93998576 146.85958816 -135 142 C-131.28570797 143.62721365 -128.38358949 145.94670486 -125.25 148.5 C-124.26515625 149.2940625 -123.2803125 150.088125 -122.265625 150.90625 C-121.51796875 151.5971875 -120.7703125 152.288125 -120 153 C-120 153.66 -120 154.32 -120 155 C-119.28199219 155.25265625 -118.56398438 155.5053125 -117.82421875 155.765625 C-114.7690057 157.10096017 -112.46168843 158.73082536 -109.8125 160.75 C-98.33009434 169.19874498 -86.2265695 174.78399834 -73 180 C-72.33919434 180.26151855 -71.67838867 180.52303711 -70.99755859 180.79248047 C-57.19998114 186.04234622 -41.50267449 186.06492765 -27.87109375 180.4453125 C-24.23254492 178.61366207 -21.18374066 176.53252098 -18 174 C-17.34 174 -16.68 174 -16 174 C-16 173.34 -16 172.68 -16 172 C-14.86769303 171.02127722 -13.69181187 170.09281863 -12.5 169.1875 C-5.10104777 162.89444099 0.74712912 153.70974932 2 144 C3.3879103 123.18134543 -6.67610989 105.16881613 -18.75 88.890625 C-20 87 -20 87 -20 85 C-20.66 85 -21.32 85 -22 85 C-23.5078125 83.3203125 -23.5078125 83.3203125 -25.125 81.125 C-25.66382813 80.40570313 -26.20265625 79.68640625 -26.7578125 78.9453125 C-28 77 -28 77 -28 75 C-28.99 74.67 -29.98 74.34 -31 74 C-32.45690361 72.36493461 -33.84364186 70.66667675 -35.1875 68.9375 C-38.70052236 64.5160365 -42.34943774 60.51401862 -46.46875 56.65625 C-48 55 -48 55 -49 52 C-47.91796875 50.30859375 -47.91796875 50.30859375 -46.1875 48.4375 C-45.54425781 47.73753906 -44.90101563 47.03757812 -44.23828125 46.31640625 C-40.97700372 42.94129704 -37.64858602 39.6368294 -34.3046875 36.34375 C-32.41069751 34.41765848 -30.68123064 32.48399938 -29 30.375 C-28.34 29.59125 -27.68 28.8075 -27 28 C-26.34 28 -25.68 28 -25 28 C-24.67708984 27.18402344 -24.67708984 27.18402344 -24.34765625 26.3515625 C-22.53620359 23.19070887 -20.04503977 20.87236204 -17.4375 18.375 C-13.77285984 15.03597098 -13.77285984 15.03597098 -11 11 C-10.34 11 -9.68 11 -9 11 C-9 10.34 -9 9.68 -9 9 C-8.34 9 -7.68 9 -7 9 C-6.34 7.68 -5.68 6.36 -5 5 C-4.34 5 -3.68 5 -3 5 C-2.690625 4.360625 -2.38125 3.72125 -2.0625 3.0625 C-1 1 -1 1 0 0 Z " fill="#f2f2f2" transform="translate(320,216)"/>
<path d="M0 0 C6.45448423 4.62722884 11.23644828 9.51270289 14 17 C14.61875 18.3921875 14.61875 18.3921875 15.25 19.8125 C17.52129257 29.46549341 15.76557597 37.38345355 11 46 C5.93822055 53.42066696 -0.95888139 58.90491422 -9.87109375 60.71875 C-18.8642933 61.90684242 -26.06158542 60.62038325 -34.0625 56.375 C-41.645685 50.24391426 -46.96247591 43.63837481 -49 34 C-49.85116101 23.60601458 -47.7612942 14.18942234 -41 6 C-40.34 6 -39.68 6 -39 6 C-39 5.34 -39 4.68 -39 4 C-27.8544994 -5.44944616 -12.90341705 -6.93512184 0 0 Z " fill="#f2f2f2" transform="translate(399,158)"/>
<path d="M0 0 C0 0.66 0 1.32 0 2 C0.556875 2.226875 1.11375 2.45375 1.6875 2.6875 C7.47249259 5.97087418 10.65847363 10.93957881 13 17 C15.49128439 27.17820792 14.19368179 36.96748994 9.3125 46.1875 C3.05296846 53.80044376 -3.74773441 59.24234927 -13.70703125 60.44921875 C-24.03250799 61.07704361 -31.90976881 58.84123641 -40.15234375 52.2890625 C-46.69670232 46.17361538 -49.61851691 39.84696191 -50.203125 30.88671875 C-50.35614027 20.44342675 -48.82065024 13.24500805 -42.1015625 5.08203125 C-30.90051027 -6.01492198 -13.63606212 -7.34249499 0 0 Z " fill="#f2f2f2" transform="translate(142,317)"/>
<path d="M0 0 C0 3 0 3 -1.5 4.875 C-3.31754972 7.4498621 -3.25692834 8.91685988 -3 12 C-4.32 11.34 -5.64 10.68 -7 10 C-6.42424336 6.64749299 -5.40693737 5.06181371 -2.9375 2.75 C-2.38964844 2.22921875 -1.84179688 1.7084375 -1.27734375 1.171875 C-0.64505859 0.59179688 -0.64505859 0.59179688 0 0 Z " fill="#f2f2f2" transform="translate(143,402)"/>
<path d="M0 0 C0 3.58912412 -0.66436554 4.10857029 -3 6.6875 C-3.556875 7.31011719 -4.11375 7.93273437 -4.6875 8.57421875 C-5.120625 9.04472656 -5.55375 9.51523437 -6 10 C-6.99 9.67 -7.98 9.34 -9 9 C-6.03 6.03 -3.06 3.06 0 0 Z " fill="#f2f2f2" transform="translate(285,253)"/>
</svg>
